<?xml version="1.0" standalone="no"?><!DOCTYPE svg PUBLIC "-//W3C//DTD SVG 1.1//EN" "http://www.w3.org/Graphics/SVG/1.1/DTD/svg11.dtd"><svg t="1603001468308" class="icon" viewBox="0 0 1024 1024" version="1.1" xmlns="http://www.w3.org/2000/svg" p-id="3075" width="64" height="64" xmlns:xlink="http://www.w3.org/1999/xlink"><defs><style type="text/css"></style></defs><path d="M960 182.3c-0.3-5.8-7.9-8.4-14.4-10.2-5.7-1.6-14.1-0.4-6.5-12.4s19.9-32.6 8.4-43.4c-7.5-7.2-19.8-1.2-29-9.2-9-8.1-5.7-28.4-28.5-39.2-22.8-10.7-42.7 20.4-43.4 25.4-0.8 5 4.9 17.6 19.1 22.6 14 5 13.6 7.5 19.7 20.3 6 12.8 11.1 23.9 20.4 28.4s11.2 17.9 22.5 12c11.5-6 14.1 3.9 21.2 12.1 7.2 8.1 10.7-0.6 10.5-6.4zM897.9 174c-0.8-0.5-1.4-0.9-2.1-1.3-9.3-4.5-14.4-15.6-20.4-28.4-6.1-12.8-5.7-15.3-19.7-20.3-8.8-3.1-14.4-9.2-17.1-14.4l-58.9 80.7 52.1 46.1 66.1-62.4zM327.4 258.4C108.5 370.8 43 586.5 69.6 726.9c11.2 58.8 61.3 120.7 120.6 94.1 50.3-22.6 80.3-85.7 141.9-105.7 38.1-12.5 79.4 20 113.5 72 55.6 84.9 177.2 187.7 367.9 88.9 173.9-90 179.1-365.6 49.2-522.4-112.7-136-331.1-200.5-535.3-95.4z m-6.3 158.8c-28.2 0-51-22.8-51-51s22.8-51 51-51 51 22.8 51 51c0.1 28.1-22.9 51-51 51z m203.8-36.8c-36.2 0-65.6-29.4-65.6-65.6s29.4-65.6 65.6-65.6 65.6 29.4 65.6 65.6-29.4 65.6-65.6 65.6z m181.6 455.2c-65.2 0-118.1-52.9-118.1-118.1s52.9-118 118.1-118 118 52.9 118 118c0 65.2-52.8 118.1-118 118.1z m35.1-319.2c-47.9 0-86.8-38.9-86.8-86.9s38.9-86.9 86.8-86.9c48 0 86.9 38.9 86.9 86.9s-38.9 86.9-86.9 86.9zM818.4 251l-51.7-45.8-21.9 25.2c20.9 10.5 40.9 22.6 59.7 36l13.9-15.4z" p-id="3076" fill="#1989fa"></path><path d="M339.7 738.6c-28.4 9.3-49.6 30.2-72 52.4-13.1 13-26.6 26.3-41.7 37.2L155 910c-12.1 14-14.9 32-5.9 39.8l5.3 4.8c8.9 7.8 26.4 3 38.7-10.7l179.3-198.8c-8.4-5-16.5-8-23.8-8-2.9 0.1-5.9 0.6-8.9 1.5z" p-id="3077" fill="#1989fa"></path></svg>